<svg class="diagram-root" style="background: #f5f6f6" xmlns="http://www.w3.org/2000/svg" xmlns:xlink="http://www.w3.org/1999/xlink"><style>.diagram-root { font-family: "Helvetica Neue", sans-serif; font-size: 12px; } .t { overflow: visible; } .t-bg { y: 40; fill: #fff;   } .th { fill: #005aa0;   } .tht { fill: #fff; font-size: 14px;  } .tf { fill: #323c46; overflow: visible; } .tf.pk { fill: #005aa0; font-weight: bold; } .tf.fk { font-weight: bold; } .ty { fill: #adb1b5; font-weight: normal; text-anchor: end; } .r { fill: transparent; stroke: #c3c3c3; stroke-width: 1; } .l { stroke: 1; } .i { fill: #c2c7ce; stroke: #c2c7ce; } .i.ix { fill: #afb3b6; stroke: #000; } .fa { fill: transparent; overflow: visible; } .fa .bg.hover { fill: #f7f7f7; } .c { cy: 12; r: 4; stroke: #d2d2dc; fill: #d2d2dc; } .hr { fill: transparent; stroke: #323c46; stroke-opacity: 0.035; stroke-width: 13; } .dc { stroke: #fa5a3c; fill: #fa5a3c; } .x { stroke: white; stroke-width: 1; } .hl .th { fill: #1b9bff; } .hl .tht {  } .fhl .bg { fill: #e7f4ff; } .fhls .bg {  } .r.hl { stroke: #1b9bff; } .dim { opacity: 0.25; }</style><g class="drawing-wrapper" transform="translate(79.28, 120.14285714285715) scale(1,1)"><g class="rs"><path d="M 173.1 63.25 m -1, 0 a 1,1 0 1,0 2,0 a 1,1 0 1,0 -2,0 M 173.1 63.25 m -0.5, 0 a 0.5,0.5 0 1,0 1,0 a 0.5,0.5 0 1,0 -1,0  M173.1 63.25 L173.1 63.25 185.1 63.25 M 173.1 69.25 m -1, 0 a 1,1 0 1,0 2,0 a 1,1 0 1,0 -2,0 M 173.1 69.25 m -0.5, 0 a 0.5,0.5 0 1,0 1,0 a 0.5,0.5 0 1,0 -1,0  M173.1 69.25 L173.1 69.25 180.1 63.25 173.1 57.25 M 173.1 57.25 m -1, 0 a 1,1 0 1,0 2,0 a 1,1 0 1,0 -2,0 M 173.1 57.25 m -0.5, 0 a 0.5,0.5 0 1,0 1,0 a 0.5,0.5 0 1,0 -1,0  M185.1 63.25 Q 200.75 63.25, 216.4 124.09 T 247.69 184.92 M 259.69 184.92 m -1, 0 a 1,1 0 1,0 2,0 a 1,1 0 1,0 -2,0 M 259.69 184.92 m -0.5, 0 a 0.5,0.5 0 1,0 1,0 a 0.5,0.5 0 1,0 -1,0  M259.69 184.92 L259.69 184.92 247.69 184.92 M253.69 190.92 L253.69 190.92 253.69 178.92" id="h4232534043" class="r"></path><path d="M 167.39 243.18 m -1, 0 a 1,1 0 1,0 2,0 a 1,1 0 1,0 -2,0 M 167.39 243.18 m -0.5, 0 a 0.5,0.5 0 1,0 1,0 a 0.5,0.5 0 1,0 -1,0  M167.39 243.18 L167.39 243.18 179.39 243.18 M 167.39 249.18 m -1, 0 a 1,1 0 1,0 2,0 a 1,1 0 1,0 -2,0 M 167.39 249.18 m -0.5, 0 a 0.5,0.5 0 1,0 1,0 a 0.5,0.5 0 1,0 -1,0  M167.39 249.18 L167.39 249.18 174.39 243.18 167.39 237.18 M 167.39 237.18 m -1, 0 a 1,1 0 1,0 2,0 a 1,1 0 1,0 -2,0 M 167.39 237.18 m -0.5, 0 a 0.5,0.5 0 1,0 1,0 a 0.5,0.5 0 1,0 -1,0  M179.39 243.18 Q 196.46 243.18, 213.54 239.05 T 247.69 234.92 M 259.69 234.92 m -1, 0 a 1,1 0 1,0 2,0 a 1,1 0 1,0 -2,0 M 259.69 234.92 m -0.5, 0 a 0.5,0.5 0 1,0 1,0 a 0.5,0.5 0 1,0 -1,0  M259.69 234.92 L259.69 234.92 247.69 234.92 M253.69 240.92 L253.69 240.92 253.69 228.92" id="h1165146666" class="r"></path><path d="M 554.14 -33.14 m -1, 0 a 1,1 0 1,0 2,0 a 1,1 0 1,0 -2,0 M 554.14 -33.14 m -0.5, 0 a 0.5,0.5 0 1,0 1,0 a 0.5,0.5 0 1,0 -1,0  M554.14 -33.14 L554.14 -33.14 542.14 -33.14 M 554.14 -27.14 m -1, 0 a 1,1 0 1,0 2,0 a 1,1 0 1,0 -2,0 M 554.14 -27.14 m -0.5, 0 a 0.5,0.5 0 1,0 1,0 a 0.5,0.5 0 1,0 -1,0  M554.14 -27.14 L554.14 -27.14 547.14 -33.14 554.14 -39.14 M 554.14 -39.14 m -1, 0 a 1,1 0 1,0 2,0 a 1,1 0 1,0 -2,0 M 554.14 -39.14 m -0.5, 0 a 0.5,0.5 0 1,0 1,0 a 0.5,0.5 0 1,0 -1,0  M542.14 -33.14 Q 512.36 -33.14, 482.58 50.89 T 423.02 134.92000000000002 M 411.02 134.92000000000002 m -1, 0 a 1,1 0 1,0 2,0 a 1,1 0 1,0 -2,0 M 411.02 134.92000000000002 m -0.5, 0 a 0.5,0.5 0 1,0 1,0 a 0.5,0.5 0 1,0 -1,0  M411.02 134.92000000000002 L411.02 134.92000000000002 423.02 134.92000000000002 M417.02 140.92000000000002 L417.02 140.92000000000002 417.02 128.92000000000002" id="h2558411332" class="r"></path><path d="M 458.42 348.75 m -1, 0 a 1,1 0 1,0 2,0 a 1,1 0 1,0 -2,0 M 458.42 348.75 m -0.5, 0 a 0.5,0.5 0 1,0 1,0 a 0.5,0.5 0 1,0 -1,0  M458.42 348.75 L458.42 348.75 470.42 348.75 M 458.42 354.75 m -1, 0 a 1,1 0 1,0 2,0 a 1,1 0 1,0 -2,0 M 458.42 354.75 m -0.5, 0 a 0.5,0.5 0 1,0 1,0 a 0.5,0.5 0 1,0 -1,0  M458.42 354.75 L458.42 354.75 465.42 348.75 458.42 342.75 M 458.42 342.75 m -1, 0 a 1,1 0 1,0 2,0 a 1,1 0 1,0 -2,0 M 458.42 342.75 m -0.5, 0 a 0.5,0.5 0 1,0 1,0 a 0.5,0.5 0 1,0 -1,0  M470.42 348.75 Q 487.32 348.75, 504.21 387.38 T 538 426 M 550 426 m -1, 0 a 1,1 0 1,0 2,0 a 1,1 0 1,0 -2,0 M 550 426 m -0.5, 0 a 0.5,0.5 0 1,0 1,0 a 0.5,0.5 0 1,0 -1,0  M550 426 L550 426 538 426 M544 432 L544 432 544 420" id="h961324396" class="r"></path><path d="M 550 401 m -1, 0 a 1,1 0 1,0 2,0 a 1,1 0 1,0 -2,0 M 550 401 m -0.5, 0 a 0.5,0.5 0 1,0 1,0 a 0.5,0.5 0 1,0 -1,0  M550 401 L550 401 538 401 M 550 407 m -1, 0 a 1,1 0 1,0 2,0 a 1,1 0 1,0 -2,0 M 550 407 m -0.5, 0 a 0.5,0.5 0 1,0 1,0 a 0.5,0.5 0 1,0 -1,0  M550 407 L550 407 543 401 550 395 M 550 395 m -1, 0 a 1,1 0 1,0 2,0 a 1,1 0 1,0 -2,0 M 550 395 m -0.5, 0 a 0.5,0.5 0 1,0 1,0 a 0.5,0.5 0 1,0 -1,0  M538 401 C 488 401, 485.516 -8.14, 542.14 -8.14 M 554.14 -8.14 m -1, 0 a 1,1 0 1,0 2,0 a 1,1 0 1,0 -2,0 M 554.14 -8.14 m -0.5, 0 a 0.5,0.5 0 1,0 1,0 a 0.5,0.5 0 1,0 -1,0  M554.14 -8.14 L554.14 -8.14 542.14 -8.14 M548.14 -2.1400000000000006 L548.14 -2.1400000000000006 548.14 -14.14" id="h3690099745" class="r"></path><path d="M 703.5 555.5 m -1, 0 a 1,1 0 1,0 2,0 a 1,1 0 1,0 -2,0 M 703.5 555.5 m -0.5, 0 a 0.5,0.5 0 1,0 1,0 a 0.5,0.5 0 1,0 -1,0  M703.5 555.5 L703.5 555.5 715.5 555.5 M 703.5 561.5 m -1, 0 a 1,1 0 1,0 2,0 a 1,1 0 1,0 -2,0 M 703.5 561.5 m -0.5, 0 a 0.5,0.5 0 1,0 1,0 a 0.5,0.5 0 1,0 -1,0  M703.5 561.5 L703.5 561.5 710.5 555.5 703.5 549.5 M 703.5 549.5 m -1, 0 a 1,1 0 1,0 2,0 a 1,1 0 1,0 -2,0 M 703.5 549.5 m -0.5, 0 a 0.5,0.5 0 1,0 1,0 a 0.5,0.5 0 1,0 -1,0  M715.5 555.5 C 762.6747096754056 555.5, 761.1747096754056 426, 718 426 M 706 426 m -1, 0 a 1,1 0 1,0 2,0 a 1,1 0 1,0 -2,0 M 706 426 m -0.5, 0 a 0.5,0.5 0 1,0 1,0 a 0.5,0.5 0 1,0 -1,0  M706 426 L706 426 718 426 M712 432 L712 432 712 420" id="h93918781" class="r"></path><path d="M 732.5 228.25 m -1, 0 a 1,1 0 1,0 2,0 a 1,1 0 1,0 -2,0 M 732.5 228.25 m -0.5, 0 a 0.5,0.5 0 1,0 1,0 a 0.5,0.5 0 1,0 -1,0  M732.5 228.25 L732.5 228.25 720.5 228.25 M 732.5 234.25 m -1, 0 a 1,1 0 1,0 2,0 a 1,1 0 1,0 -2,0 M 732.5 234.25 m -0.5, 0 a 0.5,0.5 0 1,0 1,0 a 0.5,0.5 0 1,0 -1,0  M732.5 234.25 L732.5 234.25 725.5 228.25 732.5 222.25 M 732.5 222.25 m -1, 0 a 1,1 0 1,0 2,0 a 1,1 0 1,0 -2,0 M 732.5 222.25 m -0.5, 0 a 0.5,0.5 0 1,0 1,0 a 0.5,0.5 0 1,0 -1,0  M720.5 228.25 Q 646.13 228.25, 571.76 169.09 T 423.02 109.92 M 411.02 109.92 m -1, 0 a 1,1 0 1,0 2,0 a 1,1 0 1,0 -2,0 M 411.02 109.92 m -0.5, 0 a 0.5,0.5 0 1,0 1,0 a 0.5,0.5 0 1,0 -1,0  M411.02 109.92 L411.02 109.92 423.02 109.92 M417.02 115.92 L417.02 115.92 417.02 103.92" id="h314487589" class="r"></path><path d="M 732.5 278.25 m -1, 0 a 1,1 0 1,0 2,0 a 1,1 0 1,0 -2,0 M 732.5 278.25 m -0.5, 0 a 0.5,0.5 0 1,0 1,0 a 0.5,0.5 0 1,0 -1,0  M732.5 278.25 L732.5 278.25 720.5 278.25 M 732.5 284.25 m -1, 0 a 1,1 0 1,0 2,0 a 1,1 0 1,0 -2,0 M 732.5 284.25 m -0.5, 0 a 0.5,0.5 0 1,0 1,0 a 0.5,0.5 0 1,0 -1,0  M732.5 284.25 L732.5 284.25 725.5 278.25 732.5 272.25 M 732.5 272.25 m -1, 0 a 1,1 0 1,0 2,0 a 1,1 0 1,0 -2,0 M 732.5 272.25 m -0.5, 0 a 0.5,0.5 0 1,0 1,0 a 0.5,0.5 0 1,0 -1,0  M720.5 278.25 C 670.5 278.25, 561.318 87.17, 902.47 87.17 M 914.47 87.17 m -1, 0 a 1,1 0 1,0 2,0 a 1,1 0 1,0 -2,0 M 914.47 87.17 m -0.5, 0 a 0.5,0.5 0 1,0 1,0 a 0.5,0.5 0 1,0 -1,0  M914.47 87.17 L914.47 87.17 902.47 87.17 M908.47 93.17 L908.47 93.17 908.47 81.17" id="h2149909887" class="r"></path><path d="M 797.5 375.75 m -1, 0 a 1,1 0 1,0 2,0 a 1,1 0 1,0 -2,0 M 797.5 375.75 m -0.5, 0 a 0.5,0.5 0 1,0 1,0 a 0.5,0.5 0 1,0 -1,0  M797.5 375.75 L797.5 375.75 785.5 375.75 M 797.5 381.75 m -1, 0 a 1,1 0 1,0 2,0 a 1,1 0 1,0 -2,0 M 797.5 381.75 m -0.5, 0 a 0.5,0.5 0 1,0 1,0 a 0.5,0.5 0 1,0 -1,0  M797.5 381.75 L797.5 381.75 790.5 375.75 797.5 369.75 M 797.5 369.75 m -1, 0 a 1,1 0 1,0 2,0 a 1,1 0 1,0 -2,0 M 797.5 369.75 m -0.5, 0 a 0.5,0.5 0 1,0 1,0 a 0.5,0.5 0 1,0 -1,0  M785.5 375.75 C 635.2744058388045 375.75, 674.2744058388045 253.25, 720.5 253.25 M 732.5 253.25 m -1, 0 a 1,1 0 1,0 2,0 a 1,1 0 1,0 -2,0 M 732.5 253.25 m -0.5, 0 a 0.5,0.5 0 1,0 1,0 a 0.5,0.5 0 1,0 -1,0  M732.5 253.25 L732.5 253.25 720.5 253.25 M726.5 259.25 L726.5 259.25 726.5 247.25" id="h1446526203" class="r"></path></g><g class="hrs"></g><g class="ts"><svg width="151.33" height="250" x="259.69" y="2.92" id="h63013430" class="t"><rect height="40" width="151.33" class="th"></rect><text x="13" y="25" class="tht">orders</text><rect height="210" width="151.33" class="t-bg" y="40"></rect><text x="13" y="61" class="tf pk">row_id<tspan x="138.33" class="ty">int</tspan></text><path d="M7,14A2,2 0 0,1 5,12A2,2 0 0,1 7,10A2,2 0 0,1 9,12A2,2 0 0,1 7,14M12.65,10C11.83,7.67 9.61,6 7, 6A6, 6 0 0, 0 1, 12A6, 6 0 0, 0 7, 18C9.61, 18 11.83, 16.33 12.65, 14H17V18H21V14H23V10H12.65Z" class="i pk" transform="translate(105.6633330154419, 48) scale(0.65)"></path><text x="13" y="86" class="tf">order_id<tspan x="138.33" class="ty">varchar(10)</tspan></text><text x="13" y="111" class="tf fk">created_at<tspan x="138.33" class="ty">datetime</tspan></text><text x="13" y="136" class="tf fk">item_id<tspan x="138.33" class="ty">varchar(10)</tspan></text><text x="13" y="161" class="tf">quantity<tspan x="138.33" class="ty">int</tspan></text><text x="13" y="186" class="tf fk">cust_id<tspan x="138.33" class="ty">int</tspan></text><text x="13" y="211" class="tf">delivery<tspan x="138.33" class="ty">boolean</tspan></text><text x="13" y="236" class="tf fk">add_id<tspan x="138.33" class="ty">int</tspan></text></svg><svg width="174" height="200" x="554.14" y="-90.14" id="h1168452966" class="t"><rect height="40" width="174" class="th"></rect><text x="13" y="25" class="tht">item</text><rect height="160" width="174" class="t-bg" y="40"></rect><text x="13" y="61" class="tf fk">item_id<tspan x="161" class="ty">varchar(10)</tspan></text><text x="13" y="86" class="tf fk">sku<tspan x="161" class="ty">varchar(20)</tspan></text><text x="13" y="111" class="tf">item_name<tspan x="161" class="ty">varchar(100)</tspan></text><text x="13" y="136" class="tf">item_cat<tspan x="161" class="ty">varchar(100)</tspan></text><text x="13" y="161" class="tf">item_size<tspan x="161" class="ty">varchar(10)</tspan></text><text x="13" y="186" class="tf">item_price<tspan x="161" class="ty">decimal(10,2)</tspan></text></svg><svg width="156" height="150" x="550" y="319" id="h236439381" class="t"><rect height="40" width="156" class="th"></rect><text x="13" y="25" class="tht">recipe</text><rect height="110" width="156" class="t-bg" y="40"></rect><text x="13" y="61" class="tf pk">row_id<tspan x="143" class="ty">int</tspan></text><path d="M7,14A2,2 0 0,1 5,12A2,2 0 0,1 7,10A2,2 0 0,1 9,12A2,2 0 0,1 7,14M12.65,10C11.83,7.67 9.61,6 7, 6A6, 6 0 0, 0 1, 12A6, 6 0 0, 0 7, 18C9.61, 18 11.83, 16.33 12.65, 14H17V18H21V14H23V10H12.65Z" class="i pk" transform="translate(110.3333330154419, 48) scale(0.65)"></path><text x="13" y="86" class="tf fk">recipe_id<tspan x="143" class="ty">varchar(20)</tspan></text><text x="13" y="111" class="tf fk">ing_id<tspan x="143" class="ty">varchar(10)</tspan></text><text x="13" y="136" class="tf">quantity<tspan x="143" class="ty">int</tspan></text></svg><svg width="146" height="125" x="557.5" y="473.5" id="h2363698624" class="t"><rect height="40" width="146" class="th"></rect><text x="13" y="25" class="tht">inventory</text><rect height="85" width="146" class="t-bg" y="40"></rect><text x="13" y="61" class="tf pk">inv_id<tspan x="133" class="ty">int</tspan></text><path d="M7,14A2,2 0 0,1 5,12A2,2 0 0,1 7,10A2,2 0 0,1 9,12A2,2 0 0,1 7,14M12.65,10C11.83,7.67 9.61,6 7, 6A6, 6 0 0, 0 1, 12A6, 6 0 0, 0 7, 18C9.61, 18 11.83, 16.33 12.65, 14H17V18H21V14H23V10H12.65Z" class="i pk" transform="translate(100.3333330154419, 48) scale(0.65)"></path><text x="13" y="86" class="tf fk">item_id<tspan x="133" class="ty">varchar(10)</tspan></text><text x="13" y="111" class="tf">quantity<tspan x="133" class="ty">int</tspan></text></svg><svg width="166.67" height="175" x="291.75" y="291.75" id="h1537057077" class="t"><rect height="40" width="166.67" class="th"></rect><text x="13" y="25" class="tht">ingredient</text><rect height="135" width="166.67" class="t-bg" y="40"></rect><text x="13" y="61" class="tf pk">ing_id<tspan x="153.67" class="ty">varchar(10)</tspan></text><path d="M7,14A2,2 0 0,1 5,12A2,2 0 0,1 7,10A2,2 0 0,1 9,12A2,2 0 0,1 7,14M12.65,10C11.83,7.67 9.61,6 7, 6A6, 6 0 0, 0 1, 12A6, 6 0 0, 0 7, 18C9.61, 18 11.83, 16.33 12.65, 14H17V18H21V14H23V10H12.65Z" class="i pk" transform="translate(72.33666793823241, 48) scale(0.65)"></path><text x="13" y="86" class="tf">ing_name<tspan x="153.67" class="ty">varchar(200)</tspan></text><text x="13" y="111" class="tf">ing_weight<tspan x="153.67" class="ty">int</tspan></text><text x="13" y="136" class="tf">ing_meas<tspan x="153.67" class="ty">varchar(20)</tspan></text><text x="13" y="161" class="tf">ing_price<tspan x="153.67" class="ty">decimal(5,2)</tspan></text></svg><svg width="224.67" height="175" x="-57.28" y="186.18" id="h3861953418" class="t"><rect height="40" width="224.67" class="th"></rect><text x="13" y="25" class="tht">address</text><rect height="135" width="224.67" class="t-bg" y="40"></rect><text x="13" y="61" class="tf fk">add_id<tspan x="211.67" class="ty">int</tspan></text><text x="13" y="86" class="tf">delivery_address1<tspan x="211.67" class="ty">varchar(200)</tspan></text><text x="13" y="111" class="tf">delivery_address2<tspan x="211.67" class="ty">varchar(200)?</tspan></text><text x="13" y="136" class="tf">delivery_city<tspan x="211.67" class="ty">varchar(50)</tspan></text><text x="13" y="161" class="tf">delivery_zipcode<tspan x="211.67" class="ty">varchar(50)</tspan></text></svg><svg width="185.33" height="125" x="-12.230000000000004" y="6.25" id="h2841425641" class="t"><rect height="40" width="185.33" class="th"></rect><text x="13" y="25" class="tht">customers</text><rect height="85" width="185.33" class="t-bg" y="40"></rect><text x="13" y="61" class="tf pk">cust_id<tspan x="172.33" class="ty">int</tspan></text><path d="M7,14A2,2 0 0,1 5,12A2,2 0 0,1 7,10A2,2 0 0,1 9,12A2,2 0 0,1 7,14M12.65,10C11.83,7.67 9.61,6 7, 6A6, 6 0 0, 0 1, 12A6, 6 0 0, 0 7, 18C9.61, 18 11.83, 16.33 12.65, 14H17V18H21V14H23V10H12.65Z" class="i pk" transform="translate(139.6633330154419, 48) scale(0.65)"></path><text x="13" y="86" class="tf">cust_firstname<tspan x="172.33" class="ty">varchar(50)</tspan></text><text x="13" y="111" class="tf">cust_lastname<tspan x="172.33" class="ty">varchar(50)</tspan></text></svg><svg width="145.8" height="175" x="732.5" y="121.25" id="h2836412505" class="t"><rect height="40" width="145.8" class="th"></rect><text x="13" y="25" class="tht">rota</text><rect height="135" width="145.8" class="t-bg" y="40"></rect><text x="13" y="61" class="tf pk">row_id<tspan x="132.8" class="ty">int</tspan></text><path d="M7,14A2,2 0 0,1 5,12A2,2 0 0,1 7,10A2,2 0 0,1 9,12A2,2 0 0,1 7,14M12.65,10C11.83,7.67 9.61,6 7, 6A6, 6 0 0, 0 1, 12A6, 6 0 0, 0 7, 18C9.61, 18 11.83, 16.33 12.65, 14H17V18H21V14H23V10H12.65Z" class="i pk" transform="translate(100.1333330154419, 48) scale(0.65)"></path><text x="13" y="86" class="tf">rota_id<tspan x="132.8" class="ty">varchar(20)</tspan></text><text x="13" y="111" class="tf fk">date<tspan x="132.8" class="ty">datetime</tspan></text><text x="13" y="136" class="tf fk">shift_id<tspan x="132.8" class="ty">varchar(20)</tspan></text><text x="13" y="161" class="tf fk">staff_id<tspan x="132.8" class="ty">varchar(20)</tspan></text></svg><svg width="178" height="150" x="797.5" y="318.75" id="h3902158989" class="t"><rect height="40" width="178" class="th"></rect><text x="13" y="25" class="tht">shift</text><rect height="110" width="178" class="t-bg" y="40"></rect><text x="13" y="61" class="tf pk">shift_id<tspan x="165" class="ty">varchar(20)</tspan></text><path d="M7,14A2,2 0 0,1 5,12A2,2 0 0,1 7,10A2,2 0 0,1 9,12A2,2 0 0,1 7,14M12.65,10C11.83,7.67 9.61,6 7, 6A6, 6 0 0, 0 1, 12A6, 6 0 0, 0 7, 18C9.61, 18 11.83, 16.33 12.65, 14H17V18H21V14H23V10H12.65Z" class="i pk" transform="translate(83.66666793823242, 48) scale(0.65)"></path><text x="13" y="86" class="tf">day_of_week<tspan x="165" class="ty">varchar(10)</tspan></text><text x="13" y="111" class="tf">start_time<tspan x="165" class="ty">time</tspan></text><text x="13" y="136" class="tf">end_time<tspan x="165" class="ty">time</tspan></text></svg><svg width="172" height="175" x="914.47" y="30.17" id="h3541999088" class="t"><rect height="40" width="172" class="th"></rect><text x="13" y="25" class="tht">staff</text><rect height="135" width="172" class="t-bg" y="40"></rect><text x="13" y="61" class="tf pk">staff_id<tspan x="159" class="ty">varchar(50)</tspan></text><path d="M7,14A2,2 0 0,1 5,12A2,2 0 0,1 7,10A2,2 0 0,1 9,12A2,2 0 0,1 7,14M12.65,10C11.83,7.67 9.61,6 7, 6A6, 6 0 0, 0 1, 12A6, 6 0 0, 0 7, 18C9.61, 18 11.83, 16.33 12.65, 14H17V18H21V14H23V10H12.65Z" class="i pk" transform="translate(77.66666793823242, 48) scale(0.65)"></path><text x="13" y="86" class="tf">first_name<tspan x="159" class="ty">varchar(50)</tspan></text><text x="13" y="111" class="tf">last_name<tspan x="159" class="ty">varchar(50)</tspan></text><text x="13" y="136" class="tf">position<tspan x="159" class="ty">varchar(100)</tspan></text><text x="13" y="161" class="tf">hourly_rate<tspan x="159" class="ty">decimal(5,2)</tspan></text></svg></g></g><text class="qdbd-link" x="10" y="20">www.quickdatabasediagrams.com</text></svg>